<svg width="24" height="24" viewBox="0 0 24 24" fill="none" xmlns="http://www.w3.org/2000/svg">
<mask id="mask0_17_1160" style="mask-type:alpha" maskUnits="userSpaceOnUse" x="0" y="0" width="24" height="24">
<path fill-rule="evenodd" clip-rule="evenodd" d="M11.995 1C9.44967 1 7.37862 3.03426 7.37862 5.53491V6.8307H5.04035C4.51811 6.8307 4.07916 7.2384 4.03157 7.7553L3 21.9783V21.9888C3 22.2297 3.07782 22.4598 3.22564 22.6537C3.39749 22.8785 3.69496 23 4.00983 23H19.9807C20.2653 23 20.5235 22.8977 20.7207 22.7049C20.9241 22.5039 21.037 22.2039 20.989 21.9398L19.9587 7.7486L19.9583 7.74447C19.9058 7.22704 19.475 6.8307 18.9506 6.8307H16.6119V5.53491C16.6119 3.03426 14.5413 1 11.995 1ZM9.39923 5.53491C9.39923 4.12138 10.5647 2.97215 11.995 2.97215C13.4259 2.97215 14.5917 4.12143 14.5917 5.53491V6.8307H9.39923V5.53491ZM5.08149 21.0279L5.96514 8.8033H7.37862V11.6197C7.37862 12.1644 7.83237 12.6056 8.38892 12.6056C8.94495 12.6056 9.39923 12.1645 9.39923 11.6197V8.8033H14.5917V11.6197C14.5917 12.1645 15.046 12.6056 15.602 12.6056C16.1582 12.6056 16.6119 12.1644 16.6119 11.6197V8.8033H17.9995L18.8832 21.0279H5.08149Z" fill="black"/>
</mask>
<g mask="url(#mask0_17_1160)">
<rect width="24" height="24" fill="white"/>
</g>
</svg>
