<svg width="20" height="20" viewBox="0 0 20 20" fill="none" xmlns="http://www.w3.org/2000/svg">
<path fill-rule="evenodd" clip-rule="evenodd" d="M19.7604 6.2898L10.4846 14.8081C10.3396 14.9427 10.145 15.0115 9.95083 14.9986C9.79 14.9869 9.63583 14.9194 9.51667 14.8094L0.24 6.2898C0.08125 6.14397 0 5.9423 0 5.73939C0 5.56314 0.0616667 5.38605 0.185833 5.24522C0.315417 5.09814 0.492917 5.01147 0.68625 5.00105C0.879583 4.99064 1.06542 5.05772 1.20958 5.1898L10.0004 13.2656L18.7912 5.1898C19.0887 4.9173 19.5475 4.94189 19.815 5.24522C20.0812 5.54814 20.0579 6.01689 19.7604 6.2898Z" fill="#111111"/>
<mask id="mask0_115_685" style="mask-type:luminance" maskUnits="userSpaceOnUse" x="0" y="5" width="21" height="10">
<path fill-rule="evenodd" clip-rule="evenodd" d="M19.7604 6.2898L10.4846 14.8081C10.3396 14.9427 10.145 15.0115 9.95083 14.9986C9.79 14.9869 9.63583 14.9194 9.51667 14.8094L0.24 6.2898C0.08125 6.14397 0 5.9423 0 5.73939C0 5.56314 0.0616667 5.38605 0.185833 5.24522C0.315417 5.09814 0.492917 5.01147 0.68625 5.00105C0.879583 4.99064 1.06542 5.05772 1.20958 5.1898L10.0004 13.2656L18.7912 5.1898C19.0887 4.9173 19.5475 4.94189 19.815 5.24522C20.0812 5.54814 20.0579 6.01689 19.7604 6.2898Z" fill="white"/>
</mask>
<g mask="url(#mask0_115_685)">
<rect width="20" height="20" fill="#111111"/>
</g>
</svg>
